<svg width="5" height="5" viewBox="0 0 5 5" fill="none" xmlns="http://www.w3.org/2000/svg">
<g clip-path="url(#clip0_4199_153177)">
<path d="M4.40234 2.39785L3.83442 2.23556C3.57867 2.16345 3.34571 2.02692 3.15782 1.83903C2.96993 1.65114 2.8334 1.41818 2.7613 1.16243L2.59901 0.594514C2.59084 0.574644 2.57696 0.55765 2.55912 0.54569C2.54127 0.53373 2.52028 0.527344 2.4988 0.527344C2.47732 0.527344 2.45632 0.53373 2.43848 0.54569C2.42063 0.55765 2.40675 0.574644 2.39859 0.594514L2.2363 1.16243C2.16419 1.41818 2.02767 1.65114 1.83978 1.83903C1.65189 2.02692 1.41892 2.16345 1.16317 2.23556L0.595255 2.39785C0.573449 2.40404 0.554257 2.41717 0.540591 2.43525C0.526925 2.45334 0.519531 2.47539 0.519531 2.49806C0.519531 2.52072 0.526925 2.54277 0.540591 2.56086C0.554257 2.57894 0.573449 2.59207 0.595255 2.59826L1.16317 2.76056C1.41892 2.83266 1.65189 2.96919 1.83978 3.15708C2.02767 3.34497 2.16419 3.57793 2.2363 3.83368L2.39859 4.4016C2.40478 4.4234 2.41791 4.4426 2.436 4.45626C2.45408 4.46993 2.47613 4.47732 2.4988 4.47732C2.52146 4.47732 2.54351 4.46993 2.5616 4.45626C2.57968 4.4426 2.59282 4.4234 2.59901 4.4016L2.7613 3.83368C2.8334 3.57793 2.96993 3.34497 3.15782 3.15708C3.34571 2.96919 3.57867 2.83266 3.83442 2.76056L4.40234 2.59826C4.42414 2.59207 4.44334 2.57894 4.457 2.56086C4.47067 2.54277 4.47806 2.52072 4.47806 2.49806C4.47806 2.47539 4.47067 2.45334 4.457 2.43525C4.44334 2.41717 4.42414 2.40404 4.40234 2.39785Z" fill="#0057FF"/>
</g>
<defs>
<clipPath id="clip0_4199_153177">
<rect width="5" height="5" fill="white"/>
</clipPath>
</defs>
</svg>
