<svg width="235" height="33" viewBox="0 0 235 33" fill="none" xmlns="http://www.w3.org/2000/svg">
<path d="M125.335 3.31219C129.904 15.7638 166.183 18.1686 195.297 7.45162C199.657 6.24203 202.971 5.27666 206.894 5.41481C208.962 5.48764 210.856 5.97687 212.5 7.02539C217.495 10.2105 216.385 19.8788 208.707 19.1421M208.707 19.1421C208.488 19.121 208.262 19.0914 208.032 19.0529M208.707 19.1421C208.48 19.132 208.254 19.1014 208.032 19.0529M208.707 19.1421C208.754 19.1442 208.801 19.1455 208.848 19.1458M208.032 19.0529C207.978 19.0439 207.924 19.0345 207.87 19.0245M208.032 19.0529C205.271 18.4495 203.083 15.0592 205.529 13.2629C207.258 11.9937 209.916 12.9998 209.756 15.6198" stroke="black" stroke-width="0.826048"/>
<path d="M26.4733 19.1421C26.693 19.121 26.9182 19.0914 27.1487 19.0529C26.9266 19.1014 26.7007 19.132 26.4733 19.1421Z" fill="#313131"/>
<path d="M109.846 3.31219C105.277 15.7638 68.9972 18.1686 39.8835 7.45162C35.5237 6.24203 32.2098 5.27666 28.2871 5.41481C26.2189 5.48764 24.3248 5.97687 22.6806 7.02539C17.6858 10.2105 18.796 19.8788 26.4733 19.1421M26.4733 19.1421C26.693 19.121 26.9182 19.0914 27.1487 19.0529M26.4733 19.1421C26.7007 19.132 26.9266 19.1014 27.1487 19.0529M26.4733 19.1421C26.4264 19.1442 26.3796 19.1455 26.3326 19.1458M27.1487 19.0529C27.2024 19.0439 27.2564 19.0345 27.3107 19.0245M27.1487 19.0529C29.9094 18.4495 32.0975 15.0592 29.6515 13.2629C27.923 11.9937 25.2642 12.9998 25.4245 15.6198" stroke="black" stroke-width="0.826048"/>
<path fill-rule="evenodd" clip-rule="evenodd" d="M115.211 17.1479C114.589 18.707 114.198 20.9679 114.198 23.4836C114.198 25.3483 115.565 30.2967 117.252 32C118.939 30.2967 120.306 25.3483 120.306 23.4836C120.306 20.8733 119.885 18.5373 119.222 16.9751C125.706 21.6068 130.93 17.0493 134.191 15.7894C129.745 15.9592 123.978 13.3318 120.584 9.99109C119.187 8.61644 118.092 7.05714 117.3 5.39301C116.492 7.32314 115.292 9.1315 113.699 10.6996C110.439 13.9077 104.893 16.5391 100.621 16.5098C104.089 18.0072 109.077 21.5839 115.211 17.1479Z" stroke="black" stroke-width="0.826048"/>
<path d="M16.1081 7.45138C14.4985 6.97535 12.2112 6.79363 9.70609 7.02487C7.84932 7.19627 2.43281 9.311 0.891775 11.1471C5.35583 12.3997 10.6067 12.8805 12.4713 12.9036C15.5036 12.9412 13.7406 11.0402 16.1081 7.45138Z" stroke="black" stroke-width="0.826048"/>
<path d="M218.893 7.45138C220.502 6.97535 222.79 6.79363 225.295 7.02487C227.152 7.19627 232.568 9.311 234.109 11.1471C229.645 12.3997 224.394 12.8805 222.53 12.9036C219.497 12.9412 221.26 11.0402 218.893 7.45138Z" stroke="black" stroke-width="0.826048"/>
</svg>
