<svg width="343" height="82" viewBox="0 0 343 82" fill="none" xmlns="http://www.w3.org/2000/svg">
<path d="M163.665 29.6878C159.096 17.2362 122.817 14.8314 93.7028 25.5484C89.3431 26.758 86.0292 27.7233 82.1064 27.5852C80.0383 27.5124 78.1441 27.0231 76.4999 25.9746C71.5052 22.7895 72.6154 13.1212 80.2926 13.8579M80.2926 13.8579C80.5124 13.879 80.7375 13.9086 80.968 13.9471M80.2926 13.8579C80.52 13.868 80.7459 13.8986 80.968 13.9471M80.2926 13.8579C80.2458 13.8558 80.1989 13.8545 80.152 13.8542M80.968 13.9471C81.0218 13.9561 81.0758 13.9655 81.1301 13.9755M80.968 13.9471C83.7288 14.5505 85.9169 17.9408 83.4708 19.7371C81.7424 21.0063 79.0836 20.0002 79.2438 17.3802" stroke="black" stroke-width="0.826048"/>
<path d="M262.527 13.8579C262.307 13.879 262.082 13.9086 261.851 13.9471C262.073 13.8986 262.299 13.868 262.527 13.8579Z" fill="#313131"/>
<path d="M179.154 29.6878C183.723 17.2362 220.003 14.8314 249.117 25.5484C253.476 26.758 256.79 27.7233 260.713 27.5852C262.781 27.5124 264.675 27.0231 266.319 25.9746C271.314 22.7895 270.204 13.1212 262.527 13.8579M262.527 13.8579C262.307 13.879 262.082 13.9086 261.851 13.9471M262.527 13.8579C262.299 13.868 262.073 13.8986 261.851 13.9471M262.527 13.8579C262.574 13.8558 262.62 13.8545 262.667 13.8542M261.851 13.9471C261.798 13.9561 261.744 13.9655 261.689 13.9755M261.851 13.9471C259.091 14.5505 256.902 17.9408 259.349 19.7371C261.077 21.0063 263.736 20.0002 263.576 17.3802" stroke="black" stroke-width="0.826048"/>
<path fill-rule="evenodd" clip-rule="evenodd" d="M173.789 15.8521C174.411 14.293 174.802 12.0321 174.802 9.51637C174.802 7.6517 173.435 2.70329 171.748 1C170.061 2.70329 168.694 7.6517 168.694 9.51637C168.694 12.1267 169.115 14.4627 169.778 16.0249C163.294 11.3932 158.07 15.9507 154.809 17.2106C159.255 17.0408 165.022 19.6682 168.416 23.0089C169.813 24.3836 170.908 25.9429 171.7 27.607C172.508 25.6769 173.708 23.8685 175.301 22.3004C178.561 19.0923 184.107 16.4609 188.379 16.4902C184.911 14.9928 179.923 11.4161 173.789 15.8521Z" stroke="black" stroke-width="0.826048"/>
<path d="M272.892 25.5486C274.502 26.0247 276.789 26.2064 279.294 25.9751C281.151 25.8037 286.567 23.689 288.108 21.8529C283.644 20.6003 278.393 20.1195 276.529 20.0964C273.496 20.0588 275.259 21.9598 272.892 25.5486Z" stroke="black" stroke-width="0.826048"/>
<path d="M70.1071 25.5486C68.4975 26.0247 66.2102 26.2064 63.7051 25.9751C61.8483 25.8037 56.4318 23.689 54.8908 21.8529C59.3549 20.6003 64.6058 20.1195 66.4703 20.0964C69.5026 20.0588 67.7397 21.9598 70.1071 25.5486Z" stroke="black" stroke-width="0.826048"/>
<path d="M177.987 39.7626C178.671 40.446 178.671 41.554 177.987 42.2374C177.304 42.9208 176.196 42.9208 175.513 42.2374C174.829 41.554 174.829 40.446 175.513 39.7626C176.196 39.0791 177.304 39.0791 177.987 39.7626Z" fill="#525252"/>
<path d="M172.737 39.7626C173.421 40.446 173.421 41.554 172.737 42.2374C172.054 42.9208 170.946 42.9208 170.263 42.2374C169.579 41.554 169.579 40.446 170.263 39.7626C170.946 39.0791 172.054 39.0791 172.737 39.7626Z" fill="#525252"/>
<path d="M167.487 39.7626C168.171 40.446 168.171 41.554 167.487 42.2374C166.804 42.9208 165.696 42.9208 165.013 42.2374C164.329 41.554 164.329 40.446 165.013 39.7626C165.696 39.0791 166.804 39.0791 167.487 39.7626Z" fill="#525252"/>
<path d="M179.335 52.3122C183.904 64.7638 220.183 67.1686 249.297 56.4516C253.657 55.242 256.971 54.2767 260.894 54.4148C262.962 54.4876 264.856 54.9769 266.5 56.0254C271.495 59.2105 270.385 68.8788 262.707 68.1421M262.707 68.1421C262.488 68.121 262.262 68.0914 262.032 68.0529M262.707 68.1421C262.48 68.132 262.254 68.1014 262.032 68.0529M262.707 68.1421C262.754 68.1442 262.801 68.1455 262.848 68.1458M262.032 68.0529C261.978 68.0439 261.924 68.0345 261.87 68.0245M262.032 68.0529C259.271 67.4495 257.083 64.0592 259.529 62.2629C261.258 60.9937 263.916 61.9998 263.756 64.6198" stroke="black" stroke-width="0.826048"/>
<path d="M80.4733 68.1421C80.693 68.121 80.9182 68.0914 81.1487 68.0529C80.9266 68.1014 80.7007 68.132 80.4733 68.1421Z" fill="#313131"/>
<path d="M163.846 52.3122C159.277 64.7638 122.997 67.1686 93.8835 56.4516C89.5237 55.242 86.2098 54.2767 82.2871 54.4148C80.2189 54.4876 78.3248 54.9769 76.6806 56.0254C71.6858 59.2105 72.796 68.8788 80.4733 68.1421M80.4733 68.1421C80.693 68.121 80.9182 68.0914 81.1487 68.0529M80.4733 68.1421C80.7007 68.132 80.9266 68.1014 81.1487 68.0529M80.4733 68.1421C80.4264 68.1442 80.3796 68.1455 80.3326 68.1458M81.1487 68.0529C81.2024 68.0439 81.2564 68.0345 81.3107 68.0245M81.1487 68.0529C83.9094 67.4495 86.0975 64.0592 83.6515 62.2629C81.923 60.9937 79.2642 61.9998 79.4245 64.6198" stroke="black" stroke-width="0.826048"/>
<path fill-rule="evenodd" clip-rule="evenodd" d="M169.211 66.1479C168.589 67.707 168.198 69.9679 168.198 72.4836C168.198 74.3483 169.565 79.2967 171.252 81C172.939 79.2967 174.306 74.3483 174.306 72.4836C174.306 69.8733 173.885 67.5373 173.222 65.9751C179.706 70.6068 184.93 66.0493 188.191 64.7894C183.745 64.9592 177.978 62.3318 174.584 58.9911C173.187 57.6164 172.092 56.0571 171.3 54.393C170.492 56.3231 169.292 58.1315 167.699 59.6996C164.439 62.9077 158.893 65.5391 154.621 65.5098C158.089 67.0072 163.077 70.5839 169.211 66.1479Z" stroke="black" stroke-width="0.826048"/>
<path d="M70.1081 56.4514C68.4985 55.9753 66.2112 55.7936 63.7061 56.0249C61.8493 56.1963 56.4328 58.311 54.8918 60.1471C59.3558 61.3997 64.6067 61.8805 66.4713 61.9036C69.5036 61.9412 67.7406 60.0402 70.1081 56.4514Z" stroke="black" stroke-width="0.826048"/>
<path d="M272.893 56.4514C274.502 55.9753 276.79 55.7936 279.295 56.0249C281.152 56.1963 286.568 58.311 288.109 60.1471C283.645 61.3997 278.394 61.8805 276.53 61.9036C273.497 61.9412 275.26 60.0402 272.893 56.4514Z" stroke="black" stroke-width="0.826048"/>
</svg>
