<svg width="235" height="33" viewBox="0 0 235 33" fill="none" xmlns="http://www.w3.org/2000/svg">
<path d="M109.665 29.6878C105.096 17.2362 68.8166 14.8314 39.7028 25.5484C35.3431 26.758 32.0292 27.7233 28.1064 27.5852C26.0383 27.5124 24.1441 27.0231 22.4999 25.9746C17.5052 22.7895 18.6154 13.1212 26.2926 13.8579M26.2926 13.8579C26.5124 13.879 26.7375 13.9086 26.968 13.9471M26.2926 13.8579C26.52 13.868 26.7459 13.8986 26.968 13.9471M26.2926 13.8579C26.2458 13.8558 26.1989 13.8545 26.152 13.8542M26.968 13.9471C27.0218 13.9561 27.0758 13.9655 27.1301 13.9755M26.968 13.9471C29.7288 14.5505 31.9169 17.9408 29.4708 19.7371C27.7424 21.0063 25.0836 20.0002 25.2438 17.3802" stroke="black" stroke-width="0.826048"/>
<path d="M208.527 13.8579C208.307 13.879 208.082 13.9086 207.851 13.9471C208.073 13.8986 208.299 13.868 208.527 13.8579Z" fill="#313131"/>
<path d="M125.154 29.6878C129.723 17.2362 166.003 14.8314 195.117 25.5484C199.476 26.758 202.79 27.7233 206.713 27.5852C208.781 27.5124 210.675 27.0231 212.319 25.9746C217.314 22.7895 216.204 13.1212 208.527 13.8579M208.527 13.8579C208.307 13.879 208.082 13.9086 207.851 13.9471M208.527 13.8579C208.299 13.868 208.073 13.8986 207.851 13.9471M208.527 13.8579C208.574 13.8558 208.62 13.8545 208.667 13.8542M207.851 13.9471C207.798 13.9561 207.744 13.9655 207.689 13.9755M207.851 13.9471C205.091 14.5505 202.902 17.9408 205.349 19.7371C207.077 21.0063 209.736 20.0002 209.576 17.3802" stroke="black" stroke-width="0.826048"/>
<path fill-rule="evenodd" clip-rule="evenodd" d="M119.789 15.8521C120.411 14.293 120.802 12.0321 120.802 9.51637C120.802 7.6517 119.435 2.70329 117.748 1C116.061 2.70329 114.694 7.6517 114.694 9.51637C114.694 12.1267 115.115 14.4627 115.778 16.0249C109.294 11.3932 104.07 15.9507 100.809 17.2106C105.255 17.0408 111.022 19.6682 114.416 23.0089C115.813 24.3836 116.908 25.9429 117.7 27.607C118.508 25.6769 119.708 23.8685 121.301 22.3004C124.561 19.0923 130.107 16.4609 134.379 16.4902C130.911 14.9928 125.923 11.4161 119.789 15.8521Z" stroke="black" stroke-width="0.826048"/>
<path d="M218.892 25.5486C220.502 26.0247 222.789 26.2064 225.294 25.9751C227.151 25.8037 232.567 23.689 234.108 21.8529C229.644 20.6003 224.393 20.1195 222.529 20.0964C219.496 20.0588 221.259 21.9598 218.892 25.5486Z" stroke="black" stroke-width="0.826048"/>
<path d="M16.1071 25.5486C14.4975 26.0247 12.2102 26.2064 9.70512 25.9751C7.84834 25.8037 2.43183 23.689 0.890799 21.8529C5.35485 20.6003 10.6058 20.1195 12.4703 20.0964C15.5026 20.0588 13.7397 21.9598 16.1071 25.5486Z" stroke="black" stroke-width="0.826048"/>
</svg>
