<svg width="20" height="20" viewBox="0 0 20 20" fill="none" xmlns="http://www.w3.org/2000/svg">
<path fill-rule="evenodd" clip-rule="evenodd" d="M11.9173 18.2345C11.0582 19.0835 9.60996 18.8512 9.06663 17.7773L6.10587 11.9255C5.9551 11.6275 5.64694 11.4393 5.30984 11.4393H3.29496C1.82038 11.4393 0.625 10.258 0.625 8.80076V3.08389C0.625 1.62671 1.82038 0.445341 3.29496 0.445341H15.2803C16.7596 0.445341 18.022 1.50217 18.2651 2.94405L19.3331 9.27661C19.6405 11.0993 18.2181 12.7586 16.3482 12.7586H12.7244L12.9906 15.6522C13.0719 16.536 12.7518 17.4099 12.1167 18.0374L11.9173 18.2345ZM12.1397 10.9996C11.407 10.9996 10.8325 11.6213 10.8988 12.3424L11.2179 15.8114C11.2514 16.1754 11.1196 16.5352 10.8581 16.7936L10.6587 16.9907L7.69793 11.1388C7.59028 10.9261 7.45587 10.7319 7.29991 10.5597V2.20438H11.2901H15.2803C15.8894 2.20438 16.4093 2.63956 16.5093 3.23323L17.5773 9.5658C17.7039 10.3163 17.1183 10.9996 16.3482 10.9996H13.5311H12.1397ZM5.51993 9.68842C5.45041 9.68302 5.38033 9.68027 5.30984 9.68027H3.29496C2.80344 9.68027 2.40498 9.2865 2.40498 8.80076V3.08389C2.40498 2.59822 2.80344 2.20438 3.29496 2.20438H5.51993V9.68842Z" fill="#171717"/>
<path d="M12.1397 10.9996C11.407 10.9996 10.8325 11.6213 10.8988 12.3424L11.2179 15.8114C11.2514 16.1754 11.1196 16.5352 10.8581 16.7936L10.6587 16.9907L7.69793 11.1388C7.59028 10.9261 7.45587 10.7319 7.29991 10.5597V2.20438H11.2901H15.2803C15.8894 2.20438 16.4093 2.63956 16.5093 3.23323L17.5773 9.5658C17.7039 10.3163 17.1183 10.9996 16.3482 10.9996H13.5311H12.1397Z" fill="#171717"/>
</svg>
