<svg width="20" height="20" viewBox="0 0 20 20" fill="none" xmlns="http://www.w3.org/2000/svg">
<path fill-rule="evenodd" clip-rule="evenodd" d="M11.9173 1.7655C11.0582 0.916521 9.60996 1.14877 9.06662 2.22266L6.10587 8.07451C5.9551 8.37247 5.64694 8.56069 5.30984 8.56069H3.29496C1.82038 8.56069 0.625 9.742 0.625 11.1992V16.9161C0.625 18.3733 1.82038 19.5547 3.29496 19.5547H15.2803C16.7596 19.5547 18.022 18.4978 18.2651 17.056L19.3331 10.7234C19.6405 8.90066 18.2181 7.24141 16.3482 7.24141H12.7244L12.9906 4.34782C13.0719 3.46399 12.7518 2.59012 12.1167 1.96258L11.9173 1.7655ZM12.1397 9.00045C11.407 9.00045 10.8325 8.37873 10.8988 7.65764L11.2179 4.18855C11.2514 3.82463 11.1196 3.4648 10.8581 3.2064L10.6587 3.00932L7.69793 8.86117C7.59028 9.07394 7.45587 9.26805 7.29991 9.44033V17.7956H15.2803C15.8894 17.7956 16.4093 17.3604 16.5093 16.7668L17.5773 10.4342C17.7039 9.68368 17.1183 9.00045 16.3482 9.00045H13.5311H12.1397ZM5.51993 10.3116C5.45041 10.317 5.38033 10.3197 5.30984 10.3197H3.29496C2.80344 10.3197 2.40498 10.7135 2.40498 11.1992V16.9161C2.40498 17.4018 2.80344 17.7956 3.29496 17.7956H5.51993V10.3116Z" fill="#0057FF"/>
<path d="M12.1397 9.00045C11.407 9.00045 10.8325 8.37873 10.8988 7.65764L11.2179 4.18855C11.2514 3.82463 11.1196 3.4648 10.8581 3.2064L10.6587 3.00932L7.69793 8.86117C7.59028 9.07394 7.45587 9.26805 7.29991 9.44033V17.7956H15.2803C15.8894 17.7956 16.4093 17.3604 16.5093 16.7668L17.5773 10.4342C17.7039 9.68368 17.1183 9.00045 16.3482 9.00045H13.5311H12.1397Z" fill="#0057FF"/>
<path d="M5.51993 10.3116C5.45041 10.317 5.38033 10.3197 5.30984 10.3197H3.29496C2.80344 10.3197 2.40498 10.7135 2.40498 11.1992V16.9161C2.40498 17.4018 2.80344 17.7956 3.29496 17.7956H5.51993V10.3116Z" fill="white"/>
</svg>
