<svg width="64" height="64" viewBox="51 40 64 64" fill="none" xmlns="http://www.w3.org/2000/svg">
<circle cx="83" cy="72" r="32" fill="#0057FF"/>
<path d="M64.7135 62.5007C64.6529 62.6002 64.559 62.6751 64.4485 62.7119C64.338 62.7488 64.218 62.7453 64.1098 62.7021C64.0016 62.6589 63.9122 62.5787 63.8575 62.4759C63.8028 62.373 63.7863 62.2541 63.811 62.1402L63.8172 62.1152C64.0368 61.2635 64.4463 60.4726 65.015 59.8017C66.0616 58.5969 67.5206 57.8267 69.1057 57.6419C69.1201 57.6399 69.1346 57.6385 69.1492 57.6377L69.7832 57.6004C69.8024 57.5993 69.8216 57.5993 69.8407 57.6004L70.4745 57.6372C71.2725 57.7068 72.0489 57.9337 72.7589 58.3048C73.4688 58.676 74.0982 59.184 74.6107 59.7997C75.18 60.4707 75.5896 61.262 75.809 62.1142L75.819 62.1547C75.8441 62.2688 75.8278 62.3881 75.7731 62.4913C75.7184 62.5945 75.6288 62.675 75.5203 62.7182C75.4118 62.7615 75.2914 62.7648 75.1807 62.7276C75.0699 62.6904 74.976 62.615 74.9157 62.5149C74.5369 61.9047 74.0578 61.3628 73.4987 60.9119C72.4575 60.0627 71.1552 59.5987 69.8116 59.5984C68.468 59.598 67.1654 60.0613 66.1237 60.9099C65.5678 61.3574 65.091 61.8951 64.7135 62.5007Z" fill="#E6E6E6"/>
<path d="M90.3136 62.5007C90.253 62.6002 90.1591 62.6751 90.0486 62.7119C89.9381 62.7488 89.8181 62.7453 89.7099 62.7021C89.6017 62.6589 89.5123 62.5787 89.4576 62.4759C89.4029 62.373 89.3864 62.2541 89.4111 62.1402L89.4173 62.1152C89.6369 61.2635 90.0464 60.4726 90.6151 59.8017C91.6617 58.5969 93.1207 57.8267 94.7058 57.6419C94.7202 57.6399 94.7347 57.6385 94.7493 57.6377L95.3833 57.6004C95.4025 57.5993 95.4217 57.5993 95.4408 57.6004L96.0746 57.6372C96.8726 57.7068 97.649 57.9337 98.359 58.3048C99.0689 58.676 99.6983 59.184 100.211 59.7997C100.78 60.4707 101.19 61.262 101.409 62.1142L101.419 62.1547C101.444 62.2688 101.428 62.3881 101.373 62.4913C101.318 62.5945 101.229 62.675 101.12 62.7182C101.012 62.7615 100.891 62.7648 100.781 62.7276C100.67 62.6904 100.576 62.615 100.516 62.5149C100.137 61.9047 99.6579 61.3628 99.0988 60.9119C98.0576 60.0627 96.7553 59.5987 95.4117 59.5984C94.0681 59.598 92.7655 60.0613 91.7238 60.9099C91.1679 61.3574 90.6911 61.8951 90.3136 62.5007Z" fill="#E6E6E6"/>
</svg>
