<svg width="64" height="64" viewBox="0 0 64 64" fill="none" xmlns="http://www.w3.org/2000/svg">
  <circle cx="32" cy="32" r="32" fill="#0057FF" />
  <g transform="scale(0.8888889)">
    <path d="M22.8065 18.5004C22.2297 17.9236 21.4474 17.5996 20.6317 17.5996C19.816 17.5996 19.0337 17.9237 18.4569 18.5005C17.8802 19.0773 17.5561 19.8596 17.5562 20.6753C17.5562 21.491 17.8802 22.2733 18.457 22.8501L22.8065 27.1996L27.1561 22.8501C27.4417 22.5645 27.6682 22.2255 27.8228 21.8523C27.9774 21.4792 28.0569 21.0792 28.0569 20.6753C28.0569 20.2714 27.9774 19.8715 27.8228 19.4983C27.6683 19.1252 27.4417 18.7861 27.1562 18.5005C26.8706 18.2149 26.5315 17.9883 26.1584 17.8338C25.7852 17.6792 25.3853 17.5996 24.9814 17.5996C24.5775 17.5996 24.1775 17.6791 23.8044 17.8337C23.4312 17.9883 23.0922 18.2148 22.8065 18.5004Z" fill="#E6E6E6" />
    <path d="M49.3065 18.5004C48.7297 17.9236 47.9474 17.5996 47.1317 17.5996C46.316 17.5996 45.5337 17.9237 44.9569 18.5005C44.3802 19.0773 44.0561 19.8596 44.0562 20.6753C44.0562 21.491 44.3802 22.2733 44.957 22.8501L49.3065 27.1996L53.6561 22.8501C53.9417 22.5645 54.1682 22.2255 54.3228 21.8523C54.4774 21.4792 54.5569 21.0792 54.5569 20.6753C54.5569 20.2714 54.4774 19.8715 54.3228 19.4983C54.1683 19.1252 53.9417 18.7861 53.6562 18.5005C53.3706 18.2149 53.0315 17.9883 52.6584 17.8338C52.2852 17.6792 51.8853 17.5996 51.4814 17.5996C51.0775 17.5996 50.6775 17.6791 50.3044 17.8337C49.9312 17.9883 49.5922 18.2148 49.3065 18.5004Z" fill="#E6E6E6" />
  </g>
</svg>
