<svg width="64" height="64" viewBox="51 40 64 64" fill="none" xmlns="http://www.w3.org/2000/svg">
<circle cx="83" cy="72" r="32" fill="#0057FF"/>
<path d="M74.9999 60.8C74.9999 60.1697 74.8757 59.5455 74.6345 58.9631C74.3933 58.3808 74.0397 57.8516 73.594 57.4059C73.1483 56.9602 72.6191 56.6066 72.0368 56.3654C71.4544 56.1242 70.8302 56 70.1999 56C69.5696 56 68.9454 56.1242 68.363 56.3654C67.7807 56.6066 67.2515 56.9602 66.8058 57.4059C66.3601 57.8516 66.0065 58.3808 65.7653 58.9631C65.5241 59.5455 65.3999 60.1697 65.3999 60.8L65.3999 62.4H74.9999V60.8Z" fill="#B2CDFF"/>
<path d="M100.6 60.8C100.6 60.1697 100.476 59.5455 100.235 58.9631C99.9934 58.3808 99.6398 57.8516 99.1941 57.4059C98.7484 56.9602 98.2192 56.6066 97.6369 56.3654C97.0545 56.1242 96.4303 56 95.8 56C95.1697 56 94.5455 56.1242 93.9631 56.3654C93.3808 56.6066 92.8516 56.9602 92.4059 57.4059C91.9602 57.8516 91.6066 58.3808 91.3654 58.9631C91.1242 59.5455 91 60.1697 91 60.8L91 62.4H100.6V60.8Z" fill="#B2CDFF"/>
<path d="M102.97 68.9691C101.356 66.4832 102.782 62.4004 102.782 62.4004C102.782 62.4004 106.448 64.4674 106.943 67.5012C107.439 70.5351 104.584 71.4552 102.97 68.9691Z" fill="#669AFF"/>
<path d="M103.936 53.602C104.151 53.532 104.296 53.8575 104.125 54.027C103.475 54.6701 102.67 55.1339 101.787 55.3732C101.208 55.5285 100.606 55.5816 100.008 55.5302C99.4005 55.4818 98.8054 55.3319 98.2475 55.087C97.0804 54.5599 96.0872 53.7121 95.3835 52.6422C95.0138 52.0937 94.7132 51.5016 94.4885 50.8795L94.3337 50.4045C94.2837 50.246 94.2497 50.0795 94.2122 49.9185L94.2097 49.909C94.1445 49.655 94.4312 49.4852 94.5717 49.6922C94.744 49.9457 94.9165 50.1907 95.099 50.4237C95.4409 50.872 95.8135 51.296 96.2142 51.6927C98.435 53.7952 101.162 54.505 103.936 53.602Z" fill="#B2CDFF"/>
<path d="M62.4648 53.6022C62.2498 53.5322 62.1043 53.8577 62.2753 54.0272C62.9255 54.6703 63.731 55.1341 64.6136 55.3735C65.193 55.5287 65.795 55.5818 66.3926 55.5305C67.0001 55.482 67.5951 55.3322 68.1531 55.0872C69.3201 54.5601 70.3132 53.7121 71.0168 52.6422C71.3865 52.0937 71.6871 51.5016 71.9118 50.8795L72.0666 50.4045C72.1166 50.246 72.1506 50.0795 72.1881 49.9185L72.1906 49.909C72.2558 49.655 71.9691 49.4852 71.8286 49.6922C71.6563 49.9457 71.4838 50.1907 71.3013 50.4237C70.9594 50.872 70.5868 51.296 70.1861 51.6927C67.9656 53.7955 65.2388 54.5052 62.4648 53.6022Z" fill="#B2CDFF"/>
</svg>
