<svg width="16" height="16" viewBox="0 0 16 16" fill="none" xmlns="http://www.w3.org/2000/svg">
<path d="M14.2751 1.24802C14.2743 1.21382 14.2667 1.18013 14.2525 1.14897C14.2384 1.11782 14.2181 1.08984 14.1929 1.06672C14.1677 1.04361 14.138 1.02583 14.1058 1.01445C14.0735 1.00307 14.0393 0.998333 14.0051 1.00052C4.99513 1.67302 3.30763 8.31802 2.99263 11.053C3.98018 9.58575 6.62202 6.91977 6.67013 6.93559C6.71915 6.89233 6.78314 6.86997 6.84844 6.87327C6.91373 6.87657 6.97515 6.90529 7.01955 6.95328C7.06395 7.00126 7.08782 7.06472 7.08606 7.13007C7.08429 7.19542 7.05704 7.2575 7.01011 7.30302C6.98012 7.33052 2.96796 11.8224 2.92507 12.1555C2.39153 12.9305 1.9887 13.7877 1.73263 14.693C1.72488 14.7249 1.72351 14.7581 1.7286 14.7905C1.7337 14.823 1.74516 14.8541 1.76232 14.8821C1.77949 14.9101 1.80201 14.9344 1.82861 14.9537C1.85521 14.9729 1.88536 14.9868 1.91731 14.9943C1.94927 15.0019 1.98241 15.0031 2.01483 14.9978C2.04724 14.9926 2.0783 14.9809 2.10621 14.9636C2.13412 14.9463 2.15833 14.9236 2.17745 14.8969C2.19657 14.8702 2.21022 14.84 2.21763 14.808C2.45571 13.9694 2.82985 13.1755 3.32513 12.458C10.3776 12.2305 12.8626 6.56552 12.8876 6.50802C12.9035 6.47001 12.9097 6.42868 12.9058 6.38768C12.902 6.34669 12.888 6.30728 12.8653 6.27293C12.8426 6.23859 12.8117 6.21037 12.7755 6.19077C12.7393 6.17116 12.6988 6.16077 12.6576 6.16052H11.5276L13.5026 5.09552C13.5488 5.07144 13.5857 5.03276 13.6076 4.98552C14.2951 3.58302 14.2751 1.34302 14.2751 1.24802Z" fill="#212121"/>
</svg>
