<svg width="16" height="16" viewBox="0 0 16 16" fill="none" xmlns="http://www.w3.org/2000/svg">
<path d="M12.6054 8.14808L11.1088 7.72039C10.4348 7.53038 9.82086 7.17059 9.32571 6.67544C8.83056 6.18029 8.47077 5.56636 8.28076 4.89239L7.85307 3.39576C7.83156 3.3434 7.79497 3.29862 7.74795 3.2671C7.70093 3.23558 7.6456 3.21875 7.58899 3.21875C7.53239 3.21875 7.47706 3.23558 7.43004 3.2671C7.38301 3.29862 7.34642 3.3434 7.32492 3.39576L6.89723 4.89239C6.70722 5.56636 6.34743 6.18029 5.85228 6.67544C5.35713 7.17059 4.7432 7.53038 4.06923 7.72039L2.5726 8.14808C2.51514 8.16439 2.46456 8.199 2.42855 8.24666C2.39253 8.29432 2.37305 8.35242 2.37305 8.41216C2.37305 8.47189 2.39253 8.53 2.42855 8.57766C2.46456 8.62531 2.51514 8.65992 2.5726 8.67623L4.06923 9.10392C4.7432 9.29393 5.35713 9.65372 5.85228 10.1489C6.34743 10.644 6.70722 11.2579 6.89723 11.9319L7.32492 13.4285C7.34123 13.486 7.37584 13.5366 7.42349 13.5726C7.47115 13.6086 7.52926 13.6281 7.58899 13.6281C7.64873 13.6281 7.70683 13.6086 7.75449 13.5726C7.80215 13.5366 7.83676 13.486 7.85307 13.4285L8.28076 11.9319C8.47077 11.2579 8.83056 10.644 9.32571 10.1489C9.82086 9.65372 10.4348 9.29393 11.1088 9.10392L12.6054 8.67623C12.6629 8.65992 12.7134 8.62531 12.7494 8.57766C12.7855 8.53 12.8049 8.47189 12.8049 8.41216C12.8049 8.35242 12.7855 8.29432 12.7494 8.24666C12.7134 8.199 12.6629 8.16439 12.6054 8.14808Z" fill="#0057FF"/>
<g clip-path="url(#clip0_4046_118538)">
<path d="M15.4023 2.39785L14.8344 2.23556C14.5787 2.16345 14.3457 2.02692 14.1578 1.83903C13.9699 1.65114 13.8334 1.41818 13.7613 1.16243L13.599 0.594514C13.5908 0.574644 13.577 0.55765 13.5591 0.54569C13.5413 0.53373 13.5203 0.527344 13.4988 0.527344C13.4773 0.527344 13.4563 0.53373 13.4385 0.54569C13.4206 0.55765 13.4068 0.574644 13.3986 0.594514L13.2363 1.16243C13.1642 1.41818 13.0277 1.65114 12.8398 1.83903C12.6519 2.02692 12.4189 2.16345 12.1632 2.23556L11.5953 2.39785C11.5734 2.40404 11.5543 2.41717 11.5406 2.43525C11.5269 2.45334 11.5195 2.47539 11.5195 2.49806C11.5195 2.52072 11.5269 2.54277 11.5406 2.56086C11.5543 2.57894 11.5734 2.59207 11.5953 2.59826L12.1632 2.76056C12.4189 2.83266 12.6519 2.96919 12.8398 3.15708C13.0277 3.34497 13.1642 3.57793 13.2363 3.83368L13.3986 4.4016C13.4048 4.4234 13.4179 4.4426 13.436 4.45626C13.4541 4.46993 13.4761 4.47732 13.4988 4.47732C13.5215 4.47732 13.5435 4.46993 13.5616 4.45626C13.5797 4.4426 13.5928 4.4234 13.599 4.4016L13.7613 3.83368C13.8334 3.57793 13.9699 3.34497 14.1578 3.15708C14.3457 2.96919 14.5787 2.83266 14.8344 2.76056L15.4023 2.59826C15.4241 2.59207 15.4433 2.57894 15.457 2.56086C15.4707 2.54277 15.4781 2.52072 15.4781 2.49806C15.4781 2.47539 15.4707 2.45334 15.457 2.43525C15.4433 2.41717 15.4241 2.40404 15.4023 2.39785Z" fill="#0057FF"/>
</g>
<defs>
<clipPath id="clip0_4046_118538">
<rect width="5" height="5" fill="white" transform="translate(11)"/>
</clipPath>
</defs>
</svg>
