<svg width="50" height="32" viewBox="0 0 50 32" fill="none" xmlns="http://www.w3.org/2000/svg">
<path d="M11.7591 25.3794C9.61738 25.3794 7.70846 24.9623 6.03233 24.1281C4.38725 23.263 3.0836 22.0735 2.12138 20.5596C1.1902 19.0148 0.724609 17.2691 0.724609 15.3226V6.25767C0.724609 4.02057 2.53814 2.20703 4.77524 2.20703C7.01235 2.20703 8.82587 4.02056 8.82587 6.25767V15.3226C8.82587 15.9405 8.95003 16.4812 9.19835 16.9447C9.44666 17.4081 9.78809 17.7634 10.2226 18.0106C10.6572 18.2578 11.1693 18.3814 11.7591 18.3814C12.6282 18.3814 13.3266 18.1033 13.8542 17.5472C14.413 16.991 14.6923 16.2495 14.6923 15.3226V6.25767C14.6923 4.02057 16.5058 2.20703 18.7429 2.20703C20.98 2.20703 22.7936 4.02056 22.7936 6.25767V15.3226C22.7936 17.3 22.328 19.0457 21.3968 20.5596C20.4656 22.0735 19.162 23.263 17.4858 24.1281C15.8408 24.9623 13.9318 25.3794 11.7591 25.3794Z" fill="#313131"/>
<g clip-path="url(#clip0_4010_109762)">
<circle cx="37.6169" cy="14.7204" r="4.58756" fill="#0057FF"/>
<path d="M36.47 13.3444C36.47 13.254 36.4522 13.1645 36.4176 13.081C36.3831 12.9976 36.3324 12.9217 36.2685 12.8578C36.2046 12.7939 36.1287 12.7432 36.0452 12.7086C35.9617 12.674 35.8723 12.6562 35.7819 12.6562C35.6915 12.6563 35.602 12.674 35.5185 12.7086C35.4351 12.7432 35.3592 12.7939 35.2953 12.8578C35.2314 12.9217 35.1807 12.9976 35.1461 13.081C35.1115 13.1645 35.0937 13.254 35.0938 13.3444V13.5738H36.47V13.3444Z" fill="white"/>
<path d="M40.1399 13.3444C40.1399 13.254 40.1221 13.1645 40.0876 13.081C40.053 12.9976 40.0023 12.9217 39.9384 12.8578C39.8745 12.7939 39.7986 12.7432 39.7151 12.7086C39.6317 12.674 39.5422 12.6562 39.4518 12.6562C39.3614 12.6563 39.272 12.674 39.1885 12.7086C39.105 12.7432 39.0291 12.7939 38.9652 12.8578C38.9013 12.9217 38.8506 12.9976 38.8161 13.081C38.7815 13.1645 38.7637 13.254 38.7637 13.3444V13.5738H40.1399V13.3444Z" fill="white"/>
</g>
<path d="M49.2759 11.5862C49.2759 17.9851 44.0886 23.1724 37.6897 23.1724C31.2908 23.1724 26.1035 17.9851 26.1035 11.5862C26.1035 5.18732 31.2908 0 37.6897 0C44.0886 0 49.2759 5.18732 49.2759 11.5862ZM32.9734 11.5862C32.9734 14.1909 35.085 16.3025 37.6897 16.3025C40.2945 16.3025 42.406 14.1909 42.406 11.5862C42.406 8.98147 40.2945 6.86992 37.6897 6.86992C35.085 6.86992 32.9734 8.98147 32.9734 11.5862Z" fill="#313131"/>
<path d="M26.1035 12.1367C30.5374 12.1367 34.1318 15.7311 34.1318 20.165V27.9847C34.1318 30.2016 32.3346 31.9988 30.1176 31.9988C27.9007 31.9988 26.1035 30.2016 26.1035 27.9847V12.1367Z" fill="#313131"/>
<defs>
<clipPath id="clip0_4010_109762">
<rect x="30.543" y="4.20703" width="14.3448" height="14.3448" rx="7.17241" fill="white"/>
</clipPath>
</defs>
</svg>
