<svg width="64" height="65" viewBox="0 0 64 65" fill="none" xmlns="http://www.w3.org/2000/svg">
<circle cx="32" cy="32.8477" r="32" fill="#0057FF"/>
<path d="M24.0004 23.2492C24.0004 22.6189 23.8762 21.9947 23.635 21.4123C23.3938 20.83 23.0402 20.3008 22.5945 19.8551C22.1488 19.4094 21.6196 19.0558 21.0373 18.8146C20.4549 18.5734 19.8307 18.4492 19.2004 18.4492C18.57 18.4492 17.9459 18.5734 17.3635 18.8146C16.7811 19.0558 16.252 19.4094 15.8063 19.8551C15.3606 20.3008 15.007 20.83 14.7658 21.4123C14.5245 21.9947 14.4004 22.6189 14.4004 23.2492L14.4004 24.8492H24.0004V23.2492Z" fill="white"/>
<path d="M49.6 23.2492C49.6 22.6189 49.4758 21.9947 49.2346 21.4123C48.9934 20.83 48.6398 20.3008 48.1941 19.8551C47.7484 19.4094 47.2192 19.0558 46.6369 18.8146C46.0545 18.5734 45.4303 18.4492 44.8 18.4492C44.1697 18.4492 43.5455 18.5734 42.9631 18.8146C42.3808 19.0558 41.8516 19.4094 41.4059 19.8551C40.9602 20.3008 40.6066 20.83 40.3654 21.4123C40.1242 21.9947 40 22.6189 40 23.2492L40 24.8492H49.6V23.2492Z" fill="white"/>
</svg>
